<?xml version="1.0" standalone="no"?>
<!DOCTYPE svg PUBLIC "-//W3C//DTD SVG 20010904//EN"
 "http://www.w3.org/TR/2001/REC-SVG-20010904/DTD/svg10.dtd">
<svg version="1.0" xmlns="http://www.w3.org/2000/svg"
 width="512.000000pt" height="512.000000pt" viewBox="0 0 512.000000 512.000000"
 preserveAspectRatio="xMidYMid meet">

<g transform="translate(0.000000,512.000000) scale(0.100000,-0.100000)"
fill="#000000" stroke="none">
<path d="M2417 4049 c-109 -14 -111 -17 -103 -111 l7 -79 -43 -17 c-24 -9 -81
-35 -127 -59 l-84 -42 -63 61 -63 61 -72 -59 c-40 -32 -101 -90 -136 -129 -62
-69 -143 -180 -143 -196 0 -5 25 -27 55 -50 30 -23 55 -46 55 -53 0 -6 -16
-49 -35 -96 l-35 -85 -65 0 c-52 0 -68 -4 -76 -17 -20 -35 -32 -236 -20 -329
6 -49 14 -95 17 -103 4 -11 25 -16 77 -18 l71 -3 34 -89 35 -89 -29 -25 c-16
-13 -42 -34 -57 -48 l-29 -24 23 -39 c54 -97 287 -331 329 -331 9 0 42 27 74
59 l58 59 47 -27 c54 -32 164 -81 180 -81 15 0 22 -35 19 -105 l-3 -59 40 -14
c59 -20 260 -27 352 -12 117 18 116 18 108 106 l-7 74 49 21 c26 11 83 36 126
56 l77 37 60 -59 c57 -56 60 -58 85 -45 76 41 325 311 325 353 0 8 -24 35 -54
61 l-54 46 36 90 36 90 72 0 c83 0 77 -9 94 136 6 61 7 125 0 194 -14 148 -9
140 -93 140 l-72 0 -28 78 c-15 42 -30 84 -33 92 -3 10 14 30 45 55 28 21 53
45 55 52 7 17 -65 122 -133 196 -61 65 -199 187 -213 187 -4 0 -35 -27 -67
-60 l-58 -61 -84 44 c-46 24 -103 50 -127 59 l-43 17 7 79 c8 95 8 95 -109
111 -90 13 -191 12 -290 0z m113 -384 c186 -57 333 -197 403 -383 18 -48 22
-77 21 -192 -1 -151 -15 -211 -79 -328 -34 -60 -34 -63 -13 -57 80 23 190 103
254 183 114 142 158 330 120 512 -8 36 -12 67 -11 68 7 7 43 -74 61 -133 22
-78 23 -228 0 -315 -57 -225 -223 -391 -433 -435 -79 -17 -169 -19 -241 -5
-67 12 -201 65 -247 96 -21 14 -40 23 -43 20 -14 -14 69 -147 135 -216 128
-134 251 -189 448 -199 l120 -7 -60 -18 c-48 -15 -79 -18 -165 -13 -193 10
-324 64 -445 182 -124 120 -183 276 -173 453 6 100 40 208 92 292 19 30 33 57
30 59 -2 2 -43 -15 -91 -39 -232 -115 -357 -372 -310 -635 8 -44 13 -82 11
-84 -6 -6 -36 74 -55 148 -52 203 6 425 151 572 117 119 242 164 440 157 130
-5 205 -26 304 -84 32 -19 60 -33 62 -31 3 2 -14 41 -36 85 -73 145 -201 252
-369 309 -63 21 -96 25 -188 26 -62 0 -110 3 -108 5 34 34 310 39 415 7z"/>
<path d="M3612 1698 c-20 -20 -14 -66 9 -79 33 -17 69 3 69 39 0 33 -16 52
-45 52 -12 0 -26 -5 -33 -12z"/>
<path d="M1030 1455 l0 -225 45 0 45 0 0 225 0 225 -45 0 -45 0 0 -225z"/>
<path d="M2730 1620 c0 -34 -4 -42 -26 -50 -34 -13 -31 -63 4 -68 21 -3 22 -7
22 -115 1 -72 5 -118 13 -128 44 -58 147 -50 147 11 0 28 -2 29 -32 23 -45 -9
-58 14 -58 103 0 96 4 104 51 104 38 0 39 1 39 35 0 34 -1 35 -39 35 -44 0
-58 20 -47 66 6 22 4 24 -34 24 l-40 0 0 -40z"/>
<path d="M1350 1569 c-13 -5 -32 -17 -41 -25 -15 -13 -17 -13 -22 6 -4 15 -13
20 -41 20 l-36 0 0 -170 0 -170 40 0 40 0 0 115 c0 102 2 117 20 135 27 27 83
27 110 -2 18 -19 20 -35 20 -135 l0 -113 41 0 41 0 -4 128 c-5 168 -22 202
-108 216 -19 3 -46 1 -60 -5z"/>
<path d="M2035 1565 c-79 -28 -119 -109 -103 -209 20 -128 178 -180 286 -93
10 8 8 15 -8 32 -21 22 -21 22 -58 4 -46 -24 -69 -24 -108 0 -36 22 -52 61
-26 61 10 1 67 2 127 3 l110 2 -3 45 c-9 120 -112 193 -217 155z m110 -80 c14
-13 25 -33 25 -45 0 -18 -6 -20 -78 -20 -43 0 -81 3 -85 6 -9 9 20 61 40 73
31 18 73 12 98 -14z"/>
<path d="M2454 1566 c-18 -8 -37 -22 -43 -33 -9 -16 -10 -15 -11 10 0 25 -3
27 -40 27 l-40 0 0 -170 0 -170 40 0 40 0 0 113 c0 106 2 115 23 135 33 31 80
29 106 -4 18 -23 21 -41 21 -135 l0 -109 41 0 41 0 -4 128 c-5 168 -21 202
-108 216 -21 4 -48 0 -66 -8z"/>
<path d="M3069 1570 c-50 -9 -85 -37 -114 -94 -30 -59 -31 -97 -6 -151 87
-190 375 -96 337 110 -7 37 -54 98 -90 117 -31 17 -86 25 -127 18z m116 -102
c29 -34 33 -84 10 -128 -47 -91 -185 -50 -185 55 0 97 115 145 175 73z"/>
<path d="M3513 1573 c-12 -2 -36 -18 -52 -36 l-31 -31 0 32 c0 30 -3 32 -33
32 l-34 0 -6 -112 c-4 -62 -7 -139 -7 -170 l0 -58 39 0 39 0 4 94 c3 107 21
144 77 160 29 8 31 12 31 52 0 24 -1 43 -2 43 -2 -1 -13 -4 -25 -6z"/>
<path d="M1565 1551 c3 -10 32 -85 64 -167 l59 -149 40 -3 40 -3 60 153 c34
84 64 161 68 171 6 16 2 18 -36 15 l-43 -3 -40 -117 c-21 -65 -42 -118 -46
-118 -4 0 -27 54 -51 120 l-43 120 -39 0 c-34 0 -39 -3 -33 -19z"/>
<path d="M3607 1563 c-4 -3 -7 -80 -7 -170 l0 -163 40 0 40 0 0 170 0 170 -33
0 c-19 0 -37 -3 -40 -7z"/>
<path d="M3813 1555 c-37 -16 -37 -15 -21 -50 8 -18 17 -24 27 -19 73 30 130
24 151 -17 22 -41 14 -47 -60 -41 -82 6 -125 -9 -145 -49 -30 -57 -9 -127 45
-149 38 -16 115 -8 139 14 22 20 31 20 31 1 0 -10 11 -15 35 -15 l35 0 0 128
c0 137 -10 170 -62 198 -31 18 -135 17 -175 -1z m151 -181 c22 -8 20 -36 -5
-68 -16 -21 -29 -26 -63 -26 -23 0 -47 5 -54 12 -18 18 -15 65 6 77 19 11 91
14 116 5z"/>
</g>
</svg>
